<?xml version="1.0" encoding="UTF-8"?>
<svg xmlns="http://www.w3.org/2000/svg" version="1.1" viewBox="0 0 3000 2000">
  <!-- Generator: Adobe Illustrator 30.1.0, SVG Export Plug-In . SVG Version: 2.1.1 Build 136)  -->
  <defs>
    <style>
      .st0 {
        fill: #024454;
      }

      .st1 {
        fill: #d84d50;
      }

      .st2 {
        fill: #231f20;
      }

      .st2, .st3 {
        fill-rule: evenodd;
      }

      .st4 {
        fill: #e4d0b9;
      }

      .st5 {
        fill: #c19280;
      }

      .st6 {
        fill: #5c82a7;
      }

      .st7 {
        fill: #6f8a81;
      }

      .st8 {
        fill: #fdc296;
      }

      .st3 {
        fill: #606060;
      }

      .st9 {
        fill: #ffb55c;
      }

      .st10 {
        fill: #fcf8f5;
      }
    </style>
  </defs>
  <g id="background">
    <rect class="st10" width="3000" height="2000"/>
  </g>
  <g id="object">
    <g>
      <path class="st6" d="M3015.4,1786.3c2.7-50.7,3.7-102.7-12.1-151-15.8-48.3-51.3-92.9-100.2-106.6-24-6.8-49.5-5.7-74.4-4.7-41,1.8-82.1,3.5-123.1,5.3-26.7,1.1-54.5,2.6-77.9,15.5-34.3,19-51.9,59.1-56.9,98-4.9,38.9.4,78.3-.2,117.5-.4,26.5-3.6,53.2-.3,79.5,3.3,26.3,14.2,53.2,35.9,68.5,21.5,15.1,49.4,16.4,75.7,17.1,152.5,4.2,322,78.6,333.6-139.1Z"/>
      <path class="st4" d="M2353.6,1868.3c-22.5,33.7-58.5,71.1-96.5,57.1-11.7-4.3-21.1-13.1-29.7-22.2-45.2-48.4-72.6-110.4-99.1-171.1-11.4-26.1-22.8-52.2-34.2-78.3-11.4-26-22.8-55.5-12.2-81.8,12.1-29.8,50.7-42.6,81.4-33.1,30.7,9.5,53.5,36.3,67,65.5,13.5,29.2,19.3,61.3,27,92.5,3.4,13.8,9.3,29.6,22.9,33.5,21.9,6.2,36.3-22.3,40.3-44.6,9.4-53.2,92-229.6,152.1-104.9,35.8,74.3-80.5,229.5-119.2,287.4Z"/>
      <path class="st1" d="M1893.1,1663.3c-7.5,30-30.1,58.1-23.9,88.4,9.6,47.1,75.9,55,105.4,92.9,4.5,5.8,8.2,12.5,8.3,19.8.3,15.2-13.9,26.2-27.2,33.6-85,46.8-187.8,46.9-284.2,35-27.4-3.4-56-8.2-77.9-24.9s-34.4-49.2-20.2-72.9c12.4-20.8,38.8-27.1,60.9-37,22.1-9.9,44.4-32.7,35.4-55.2-5.1-12.6-18.2-19.5-29.1-27.6-34.2-25.1-52.3-73.2-36.4-112.6,49.6-123,329-100.4,289,60.4Z"/>
      <path class="st0" d="M1312.1,1809.9c-36.6,52.1-82.6,109.6-146.3,111.3-33.8.9-65.5-14.7-95.6-29.9-9.5-4.8-19.6-10.3-24.1-19.9-6.4-13.8,1.3-29.7,8.9-42.8,41-70.5,85.9-138.8,134.4-204.5,16.7-22.6,34.4-45.4,58.7-59.6,36.3-21.2,204.8-41.6,218.4,16.1,10.3,43.8-127.5,191.1-154.3,229.3Z"/>
      <path class="st9" d="M763,1873.2c100.4-26.1,178.5-121.7,184-225.3.6-11.6.3-23.9-5.4-34.1-4.8-8.6-12.8-14.8-21.3-19.8-47.3-27.5-107.5-18.7-158.8.5-51.3,19.1-99.4,47.8-153,58.8-37.8,7.8-80.1,7.8-109.3,32.9-62.6,53.8-12,147.2,47,179.3,58.6,31.9,155.2,23.6,216.9,7.6Z"/>
      <path class="st5" d="M46.9,1840.2c-29.9-4.5-63.5-13.5-77.1-40.4-5.6-11.1-7-24-6.1-36.4,2.7-40.8,27.8-77.8,60.6-102.1,32.8-24.3,72.7-37.3,112.7-45.3,73.3-14.7,156.3-11.6,213.5,36.5,55,46.2,86.7,139.4,17.7,176.8-80.3,43.6-235.1,24.1-321.3,11Z"/>
      <path class="st8" d="M2755.8,1134c27.5-43.6,90.9-40.5,141.7-32.2,21.9,3.6,43.8,7.2,65.7,10.7,7.3-41.8,9.7-94.9-27.2-116-15-8.6-33.1-9.2-50.4-9.6-36.3-.8-72.5-1.6-108.8-2.4-27.3-.6-55.1-1.1-81.3,6.4-26.2,7.5-51.2,24.6-61.5,49.9-5.9,14.6-6.6,30.8-7.1,46.6-2.9,81.4-5.9,162.8-8.8,244.2-.4,10.5-.6,21.6,4.4,30.8,34.7,63.7,116.2,25.4,127.1-25.2,13.6-63.3-32.7-141.7,6.2-203.4Z"/>
      <path class="st7" d="M2222.5,1345.6c-15.2,9.5-34,18.6-50.2,11,2-32.2,4-64.4,5.9-96.6-25.2,1-50.4-.5-75.3-4.7-6.8-1.1-14.2-2.8-18.6-8-4-4.7-4.8-11.3-5.1-17.5-5.2-98.7,73.4-194.7,171.1-209.1,9.4,25.6,14.8,52.6,15.9,79.8,23.6,8.6,45.9-13.5,65.3-29.5,27.5-22.6,62.5-35.8,98-37,13.5-.5,28.2,1.2,38.1,10.4,12.1,11.2,13.2,31,5.7,45.6-49.8,96.7-159,198.1-250.9,255.6Z"/>
      <path class="st6" d="M1919.3,1269.8c-60,71.4-165.9,77-259.2,76.9-11.2-29.2,15.6-58.6,41.4-76.3,25.8-17.7,56.6-38.3,57.3-69.7.1-6.5-1.3-13.4-5.9-18-4.8-4.8-12-6.2-18.7-6.8-26.1-2.4-52.3,3-78.4,2-26.2-1-54.6-10.7-66.9-33.8-15.6-29.3,3.1-67.4,31.5-84.6,28.4-17.1,63.3-18.7,96.5-19.6,63.7-1.6,181.2-25.8,228.9,31.5,44.1,52.9,12.5,152.1-26.4,198.5Z"/>
      <g>
        <path class="st5" d="M1427.6,1245.8c-19.6,50.5-66.3,88.2-118.5,102.4-52.3,14.1-109.2,6-158.3-16.9-20.7-9.7-40.9-22.7-52.9-42.1-11.7-18.9-14.5-41.8-17.1-63.9-3.9-33.9-7.8-67.9-11.7-101.8-3-26.5-3.8-58.4,17.9-73.9,20.4-14.6,51-4.5,66.4,15.4,15.4,19.9,19.2,46.2,21,71.2,1.8,25.1,2.5,51,13.1,73.8,14.6,31.3,48.4,52.6,82.9,52.2,34.5-.4,67.8-22.5,81.6-54.2,11.9-27.4,9.6-58.6,7.1-88.4-2.4-28-4.8-56-7.2-84,71-22.8,75.7-9.7,86.3,50.4,8.4,48.1,7.3,114-10.5,159.8Z"/>
        <path class="st5" d="M1321.5,1094.7c1.1-11.8-1.6-24.6-9.8-33.1-8.7-9.1-22-12-34.5-13-19.4-1.4-41.4,2.2-53,17.9-6.5,8.7-8.6,19.8-10.7,30.5-6.8,36.1,9.7,71.6,51.3,73.7,35.6,1.8,53.9-46.5,56.7-76Z"/>
      </g>
      <path class="st4" d="M801.2,1331.3c32.5,1.3,69.8-3.7,88-30.6,10.2-15.1,12.1-34.1,12.8-52.3,1.4-39.1-1.7-78.4-9.1-116.8-2.7-14.1-6.1-28.3-13.4-40.6-16.6-28.1-51.1-41.8-83.8-42.1-32.7-.3-64.3,10.4-95.2,21.1-28.9,9.9-57.7,19.9-86.6,29.8-27.7,9.5-56.5,19.8-76.6,41.1-105.3,111.4,198.6,188,263.9,190.5Z"/>
      <path class="st0" d="M319.8,1273.1c-53.5,39.6-121.2,57.1-187.8,58-38.8.5-79.5-5-110.8-27.8-48.6-35.3-62.2-101.8-63.1-161.9-.5-28.1,5.6-62.7,32.3-71.5,22.5-7.4,46.6,9.9,57.8,30.8,11.2,20.9,14.1,45.2,22.6,67.4,7.2,18.7,31.4,37.4,44.3,22.1,5.9-7,4.9-17.4,3.6-26.5-3.4-25.3-5.3-52.1,5.5-75.3,10.8-23.1,38.3-40.3,62.1-31.3,27.5,10.5,33.9,45.4,40.4,74.2,6.5,28.7,27.4,62.5,56.1,55.9,26.4-6.1,32.6-39.7,38.8-66.1,4.7-20.1,13-40.2,28.7-53.7,64-55.1,67.6,26.8,59.6,63.5-12.5,57.2-42.7,107-90.1,142.1Z"/>
      <path class="st9" d="M2843,562.1c-77.4-23.6-168.9,12.8-209,83.1-14.4,25.1-22.6,54.9-17.2,83.3,28.9-8.9,57.9-17.7,86.8-26.6,10.1-3.1,22.3-5.8,30.3,1.2,5.8,5.1,7.1,13.7,7.4,21.4,1.1,27.3-4,54.8-14.8,79.8-12.6,29.3-31.5,67.4-7.6,88.7,15.9,14.1,42.4,8.4,57.5-6.6,15.1-15,21.7-36.3,28-56.6,6.2-20.3,13.1-41.6,28.6-56.2,56-52.7,128.6,55,137-52,5.5-69.2-66.4-141-127.1-159.5Z"/>
      <path class="st1" d="M2490.9,736.5c-3.6,61.2-46.7,118.2-104.5,138.4-15.3,5.3-31.3,8.3-47.3,10.8-53.1,8.3-108.9,11.5-159-7.9-50.1-19.4-92.7-66.5-91.9-120.2,64.9,4.9,129.2,17.7,191,38,14.3-12.8,8.7-38-6.1-50.2-14.8-12.2-35-14.8-54-16.9-20.7-2.3-41.5-4.7-62.2-7-26.2-3-54.7-7-72.6-26.3-22-23.7-19.4-60.5-15.4-92.6,50.7-6.9,99.4,18.9,144,43.8,49.1,27.4,98.2,54.9,147.3,82.3,10.7-28-2.9-63-29.6-76.5-13.4-6.8-28.9-8.4-42.7-14.6-13.7-6.1-26.5-19.7-23.7-34.5,1.6-8.7,8.3-15.7,15.6-20.8,96.8-66.9,216.8,59.8,211.2,154.1Z"/>
      <g>
        <path class="st0" d="M1621.6,661.6c-12.9-24.7,1.6-56.7,24.7-72.4,23-15.7,52-19.4,79.7-22.4,42.7-4.7,87.2-9.1,127.6,5.5,73.3,26.5,79.5,73.4,9.1,90.7-20.8,5.1-235.4,9.5-241.1-1.4Z"/>
        <path class="st9" d="M1932.6,792.6c-3.6,23-21.2,41.5-41,53.6-58.4,35.8-132.7,26.4-200.3,15.8-15.6-2.4-32-5.3-43.9-15.7-6.8-6-11.5-14.1-14.4-22.7-14.8-43,15.9-91.4,57.3-110.3,57.8-26.4,258.9-27.1,242.4,79.4Z"/>
      </g>
      <path class="st6" d="M1356.6,809.1c-67.5,54-152,84.2-237.6,96-27.7,3.8-60.5,3.9-77.9-18-8.9-11.2-11.7-26-13.1-40.3-2.6-26.3-.7-54.8,14.9-76.2,29.8-40.9,90.3-36.4,140.6-41.5,37.9-3.8,75.9-16,105.1-40.5,29.2-24.5,48.5-62.4,44.9-100.3-.9-9.9-2.9-21.3,4-28.5,4.4-4.5,11.1-5.8,17.4-6.6,26-3.5,52.3-4.9,78.5-4.1,0,0,0,0,0,0,133.4,4.1-36.9,228-76.9,260Z"/>
      <path class="st8" d="M916.9,870.4c-5.5,7.7-11.6,15.3-19.9,20-24,13.4-55.5-5.6-65.8-31-10.2-25.5-5.5-54.2-1.1-81.3,4.4-27.1,8-56.2-4.1-80.9-12.1-24.6-46.3-40.1-68-23.3-16.1,12.4-18.2,35.3-21.2,55.4-6.7,45.1-24.2,88.6-50.7,125.7-9.3,13-20.1,25.6-34.4,32.5-14.4,6.9-33.1,7-45-3.6-13.7-12.1-14.4-32.8-14.1-51.1.6-33.1,1.2-66.1,1.8-99.2.3-14.3-.3-30.6-10.9-40.2-14.3-12.9-38.8-4.7-50,11.1-11.2,15.7-13.1,36-16.1,55-4.5,28.3-12.2,56-22.9,82.6-6.7,16.5-23.5,35.6-38.6,26.1-8-5-9.9-15.7-11-25.1-6.9-57.8-13.3-118.5,8.8-172.3,22.2-53.8,83.6-96.2,138.3-76.3,34.7,12.6,58,46.9,67.2,82.7,9.2,35.8,6.7,73.4,4,110.3,35.5-8.6,48-52.8,47.7-89.3-.3-36.5-5.7-77,16.6-106,18.8-24.4,52.5-32.6,83.2-30.7,23.9,1.4,48.8,8.8,64.8,26.6,38.2,42.5,5.9,113.3,29.5,165.3,7.7.1,15.4.2,23,.4.7-27.5,25.1-50.9,23.2-78.3-2.3-33.2-30.9-53.9-28.4-87.8,108.9,22.6,33.7,227.4-5.9,282.7Z"/>
      <path class="st7" d="M329.6,735.2c.7,14.6,1.3,29.9-5.2,42.9-7.4,14.8-22.5,23.9-36.8,32.2-76.6,44.5-157.2,90.3-245.7,94.2-9.2-21.3,12.4-42.7,32-55.1,35-22,72.1-40.6,110.7-55.5,22.4-8.6,46.6-16.9,61.2-36,19.2-25.3,15.2-60.7,10.2-92.1-58.3,3.4-117.1-1.3-174.1-13.9-10.2-2.3-20.7-4.9-28.8-11.6-22.9-18.7-12.1-58.9,12.7-74.9,24.8-16,56.6-14.9,86.1-13.2,41.4,2.3,135.8-11,164.2,24.2,24.3,30,11.7,121.9,13.5,158.7Z"/>
      <path class="st1" d="M2990.5,154.9c.3-.1,2.6-1.1,2.7-.9,0,.2-2.5.2-2.7.2-.5,0-3.7-1.3-1.8-.5.6.2,1.2.7,1.8,1.1-3.3-2.3,2.5,3.2.4.5,1.3,1.7,2.3,3.6,3.3,5.5.2.4,1.2,2.9.3.4.3.7.5,1.4.8,2.2.6,2,1.2,4,1.7,5.9,1.3,4.7,2.3,9.4,3.2,14.1,1.6,8.5,2.3,14.6,2.7,24.4.4,9,.1,18.1-.7,27.1-.2,2.1-.4,4.2-.7,6.3-.2,1.9,0,.5,0,.1-.2,1.2-.4,2.4-.6,3.6-.8,4.8-1.7,9.5-2.8,14.2-2.1,8.8-4.8,17.5-8,25.9-1.4,3.5-2,5-4,9.4-2.1,4.4-4.3,8.7-6.7,12.9-2.1,3.6-4.3,7.2-6.6,10.7-1.1,1.7-2.3,3.4-3.5,5-.2.2-2.3,3.1-1.3,1.8.6-.7-2,2.4-2,2.4-5.9,6.9-9.7,10.4-17,14.2-.3.1-3.4,1.6-1.9.9,1.4-.6-1.3.4-1.2.4-2,.6-4,1.2-6.1,1.6-.2,0-2.7.3-.9.1,2-.2-1.2,0-1.6,0-2,0-4.1,0-6.1-.2-2.6-.2,2.4.5-.2,0-.8-.1-1.5-.3-2.3-.4-2-.4-4-1-6-1.7-.7-.3-1.5-.5-2.2-.8-2.5-.9,2,1-.4-.2-1.9-.9-3.8-1.9-5.6-3-1.6-1-3.2-2-4.7-3-2.6-1.7-1.1-.8-.5-.3-.8-.7-1.7-1.4-2.5-2.1-3.1-2.7-5.9-5.6-8.5-8.7-.2-.3-2.3-2.9-1.2-1.5.9,1.2-.6-.9-.6-.9-1-1.6-2.1-3.1-3-4.7-2.3-3.9-4.1-7.7-5.2-10.7-3.3-8.8-5.4-18-6.8-27.3-.3-1.9,0-.7,0-.3-.2-1.3-.3-2.5-.4-3.8-.2-2.2-.4-4.4-.6-6.6-.4-5.1-.6-10.2-.7-15.3-.3-9.9-.3-19.9-.3-29.8-.1-18.7-1.4-37.7.1-56.4.1-1.8.3-3.7.6-5.5-.4,3.3.1-.6.4-1.9.6-3.4,1.4-6.8,2.4-10.2.5-1.7,1.1-3.5,1.7-5.2.2-.6.5-1.2.7-1.9.7-2.2-1.4,2.2-.1.3,1.7-2.5,3.1-5.5,4.7-8.1-2.1,3.4.4-.3,1.2-1.2.4-.4,1-.8,1.3-1.2,1.1-1.7-2.4,1.4-.7.5,1.1-.5,2.4-1.3,3.4-2-.2.1-3,.9-1.3.6.9-.2,1.9-.5,2.8-.8,2.7-.9-2.9,0,1,0,.4,0,3.1,0,1.3,0-1.7-.1.8.1,1,.2,1,.3,2,.5,3,.9-.8-.3-2.1-1.3.4.3.7.4,1.4.8,2,1.2,1.3.8-.8-1,1.2.8,1.4,1.3,2.8,2.6,4.1,4.1.2.2,2.3,2.9,1.3,1.6-.9-1.2.7,1.1.7,1,2.4,3.9,4.7,7.7,6.4,12-.8-1.9,1,2.9,1.2,3.5.7,1.9,1.3,3.9,1.8,5.9.6,2.2,1.1,4.5,1.6,6.8.2.9.3,1.7.5,2.6.1.8.5,3.9.3,1.7,3.9,34.6-8.3,67.3-27.6,96.5-5,7.6-7.6,11-13.6,17.6-2.9,3.1-5.9,6.1-9,9-3.8,3.4-4.5,4-7.9,6.2-3.4,2.3-7,4.4-10.7,6.2-.7.4-1.5.7-2.2,1-2.5,1.1,2-.7-.7.2-2.1.7-4.2,1.5-6.3,2-1.9.5-3.8.9-5.7,1.3-3.2.7-1.1.2-.3.1-1,.1-2.1.2-3.1.3-3.9.3-7.7.1-11.5-.2-2.6-.2,2.4.5-.2,0-.8-.1-1.5-.3-2.2-.4-2-.4-4-.9-5.9-1.4-1.7-.5-3.4-1.1-5.1-1.7-.7-.3-1.4-.5-2.2-.8,2.2.9,0,0-1-.5-3.3-1.6-6.5-3.3-9.5-5.3-1.6-1-3-2-4.6-3.1-2.6-1.8-1-.7-.5-.3-1-.8-2.1-1.7-3.1-2.5-12.8-11-20-20.9-27.1-36.5-.8-1.7,0,0,0,.2-.4-1-.8-2-1.2-3-.7-1.8-1.3-3.5-1.8-5.3-1.4-4.5-2.6-9.2-3.5-13.8-1.8-9.1-2.5-18.2-2.5-28.1,0-20.5,2.8-39.3,6.9-59.3,2.1-10.2,4.4-20.3,6.8-30.4-1.4,2.4-2.8,4.8-4.2,7.3-2.9,2.3.7-.2,1.2-.5-3.1,1.9.2,0,1-.2,3.6-1.5-3-.2.9-.2,1.4,0,2.7,0,4,0-.6,0-3.4-.7-.3,0,1.4.3,2.7.6,4.1,1,.6.2,4.6,2.1,1.3.4,1.7.9,3.3,1.9,5,2.8,3.8,2.2-1.3-1.2.7.5.9.8,1.8,1.6,2.7,2.4.3.3,3.4,3.9,1.2,1,.9,1.1,1.6,2.3,2.3,3.6,1.7,2.9,1.7,2.9,2.8,6.1.6,1.7,1.1,3.5,1.5,5.3.2.7,1.2,6.4,1,4.7,1.9,14.3,0,29-1.5,43.2-1.4,14-3.2,27.1-6.9,41.7-3.7,14.7-8.1,27-16.1,39.5-3.7,5.8-4.9,7.4-9.6,12.4-1.9,2-3.9,4-5.9,5.9-1.2,1.1-2.5,2.2-3.8,3.3-1.5,1.2-1.7,1.4-.6.5-.9.7-1.8,1.3-2.7,1.9-2.5,1.7-5,3.3-7.6,4.7-1.2.7-2.4,1.3-3.6,1.9-.1,0-5,2.1-2,1-3,1.2-6.1,2.2-9.2,3-1,.3-2.1.5-3.1.7-1.1.2-2.1.4-3.2.6,1.7-.2,1.6-.2-.4,0-3.3.1-6.5.3-9.7,0,.2,0-4.9-.6-2.6-.2,2.3.4-2.8-.6-2.5-.5-3.1-.7-6.1-1.7-9.1-2.6-4.7-1.5,2.5,1.4-1.9-.8-1.4-.7-2.9-1.4-4.3-2.1-9.9-5.4-19.5-14-25.1-22-7.8-11.2-12.6-21.5-16.1-34.3-7.5-26.9-8-56.4-5.9-85.3.4-5.6-.6,2.6.3-2.8.3-1.8.7-3.5,1.1-5.3.4-1.7,1-3.4,1.5-5.1,1.4-4.4-1.1,1.5,1.1-2.6.6-1,1.2-2.1,1.7-3.1,2.3-4.4-1.9,1.4,1-1.6,1-1,2-2.1,3.1-3-2.5,2.3,1.9-1.2,2.6-1.6.8-.5,1.7-.9,2.6-1.3-3.3,1.5.9-.1,1.4-.3.9-.2,4.9-.4,1.1-.3,1.4,0,2.7,0,4.1,0-4-.3,0,.3.9.5-1.1-.3-2.1-1.6-.2,0,3.1,2.6-1.3-2.6,1.4,1.2,1.3,1.4,1.5,1.6.5.6.6.9,1.1,1.9,1.7,2.9,2.2,4-.4-2.1.9,2.3.3,1.1.7,2.2,1,3.3,1,3.4,1.8,6.9,2.5,10.3.8,3.6,1.5,7.3,2.1,10.9.2,1.2.4,2.4.6,3.7.3,2.1.4,2.5.2,1.2.2,1.2.3,2.5.4,3.7,1.5,14.1,1.7,28.4,0,42.5.3-2.8-.5,3.1-.5,2.9-.4,2.4-.9,4.8-1.4,7.2-.8,3.6-1.7,7.1-2.7,10.6-2.4,8.1-4.3,12.6-8.1,19.6-1.8,3.4-3.8,6.6-6,9.7-.1.2-3.2,4.3-1.1,1.7-1,1.2-2,2.4-3,3.6-2.4,2.8-4.9,5.4-7.6,7.9-1.1,1.1-2.3,2.1-3.5,3.1-.4.3-3.7,3-1.6,1.4-5.3,4.1-11.2,7.6-17.3,10.6-.2.1-4.9,2.2-1.7.9-1.9.8-3.8,1.5-5.8,2.2-3.1,1.1-6.3,1.9-9.6,2.7-1.2.3-2.5.5-3.7.7-2,.3-2,.3-.1,0-1,.1-2,.2-3,.3-3.3.3-6.5.3-9.8.2-1.3,0-2.5-.2-3.8-.3-2-.2-2-.2-.1,0-1-.2-2-.3-3-.5-3.5-.7-6.9-1.7-10.3-2.9-8.1-2.9-18.4,3.3-20.2,11.5-2.1,9.2,2.8,17.2,11.5,20.2,34.2,12.1,71.3.7,98.8-21.2,30.2-24,44.5-61.8,47.3-99.4,1.5-20-.5-40.2-4.4-59.7-3.9-19.5-10.9-41.2-32.2-47.5-18.7-5.5-38.9,3.6-50.3,18.6-12.6,16.6-13.9,38.3-14,58.3-.2,39.4,2.8,82.4,25.8,115.8,21.7,31.5,56.9,52,95.8,45.1,38.3-6.8,66.4-39,80.6-73.3,8-19.4,11.8-39.9,14.5-60.6,2.4-18.9,5.2-38.7,3.2-57.8-2.2-20.9-10.3-40-28.3-51.8-14.8-9.7-35.5-12.4-51-2.8-6.3,3.9-9.6,8.7-11.3,15.9-1.3,5.4-2.5,10.8-3.7,16.2-2.2,10.2-4.3,20.4-6,30.7-3.5,21.7-5.7,43.9-3.4,65.8,2.1,20.3,7.1,39.8,17.2,57.6,9,15.9,21.2,29.4,35.8,40.4,29.7,22.3,69.2,25.6,101.5,6.6,32.7-19.2,54.9-54.5,68.4-89.1,14.2-36.2,17-78.2-1-113.6-9-17.8-25.9-33.4-46.9-33.5-16.7,0-30.8,10-39,24.1-8,13.7-11.2,29.8-12.4,45.4-1.6,19.7-.2,39.8,0,59.6.2,39.4-.4,83.5,24.8,116.3,23,30,65.5,46.7,99.6,24.2,16.5-10.9,28.5-27.4,38-44.5,9.3-16.7,16.4-34.9,20.9-53.5,4.5-18.7,6.8-38.1,6.3-57.3-.4-19.1-2.9-39.4-9.2-57.5-6.1-17.7-23.7-39.6-45-30.7-8.2,3.4-14.1,10.9-11.5,20.2,2.1,7.7,12,14.9,20.2,11.5h0Z"/>
      <path class="st0" d="M2099.8,396.6c-4.7-8.3,6.8-16.1,15.9-18.9,34.8-10.3,69.5-20.7,104.3-31,5.9-1.8,5.6-10.3-.5-11.6-34.2-7.1-69.6-8.9-104.3-5.1-2.8.3-5.5-1.4-6.4-4.1-2.6-8.1.4-17.8,6.2-24.3,7-7.8,17.2-11.9,27.3-15.1,24.7-7.9,50.6-12.1,76.6-12.5,7.9,0,17.9-2.3,23.3-7,4.2-3.6,1.6-10.5-4-10.5-25.3.1-50.6.2-76,.3-14,0-28.9-.1-40.8-7.6-11-6.9-17.5-22.5-11.3-33.4.9-1.6,2.6-2.6,4.4-2.9,37.2-4.4,74.4-8.9,111.6-13.3,6.1-.7,7.3-9.1,1.6-11.5-30.5-12.6-72.8-1.2-99.9-21.8-.8-.6-1.4-1.4-1.8-2.3-3.4-8.2,1.2-18.4,8.6-23.6,7.8-5.5,17.8-6.9,27.4-7.8,25.5-2.5,51.1-3.4,76.7-2.7,3.6,0,6.4-2.9,6.1-6.5-1.3-15.1-.9-30.6,6-43.8,8-15.2,27.5-25.7,43-18.1,12.2,5.9,17.8,20.9,16.8,34.4-.7,10-4.3,19.5-8.7,28.6-2,4.2,1.4,8.9,6,8.5,39.8-3.9,79.5-8.3,119.1-13.2,3.5-.4,6.7,2.3,6.7,5.8l.5,31.6c0,2.7-1.8,5.2-4.4,5.9-25.2,6.7-50.9,11.3-76.9,13.8-6.7.6-7.3,10.2-.8,11.8,12.1,3,24.6,4.4,37.1,4.1,13.6-.3,27.5-2.5,40.7.5s26.2,13.6,26.4,27.2c.3,22.9-30.3,30.5-53.2,30.8-12.4.2-24.8.3-37.3.5-7.7,0-7.9,11.7-.2,12,6,.2,12,0,18-.5,13.5-1.2,27.1-4.1,40.6-2.7,13.5,1.4,27.6,8.4,32.4,21.1,5.8,15.2-4.2,32.7-18.2,40.9-14,8.3-30.8,9.6-47,10.6-22.4,1.5-44.8,3-67.1,4.5-6.2.4-7.7,8.8-2.1,11.4,37.8,17.6,183.7,24.8,106,59.3-19.8,8.8-321.7.3-328.5-11.9Z"/>
      <path class="st5" d="M1839.4,303.9c67.9-48.6,118.6-120.7,141.4-201-113.5-15.2-232.5,15.1-324.9,82.9-39.9,29.3-76.5,68.2-86.4,116.7,55.1-18.4,103.1-52.7,152.5-83.1,53.7-33,110-61.9,168.1-86.1-35.5,14.8-76.7,76.9-107.5,103.1-41.9,35.5-87.2,64.8-131.4,97.1-61.6,44.9-4.7,42.6,44.6,32.6,51.5-10.4,100.9-31.6,143.6-62.2Z"/>
      <path class="st9" d="M1460.4,208.7c3.3,32.4-9.8,64.7-29.2,90.9-44.4,60.1-123.7,92.2-197.4,79.8-7.3-1.2-14.9-3-20.7-7.7-14.2-11.4-11.2-34.5-1-49.5,14.2-20.8,37.9-32.5,58.6-46.8s40.4-35.6,39.1-60.7c-78.3-15.8-164.2,37-185.5,114-5.5,19.8-1.1,48.6,19.5,50.1-21.1,16.4-54.7,13.6-72.7-6.2-17.4-19-18.9-47.2-19.5-73-.6-25.2-1.1-50.4-1.7-75.5-.6-27-.7-55.9,14.1-78.6,34.5-52.8,161.6-65.2,220.4-63.6,71,2,167.9,48,175.9,126.8Z"/>
      <path class="st7" d="M890.8,396c-9.5,7.8-21.9,14.1-33.9,11.2-21.4-5.2-26.2-33.3-24.9-55.3,1.3-22,1.9-49-17.1-60.2-22.3-13.2-49.9,9-60,32.8-10.1,23.8-13.2,52-31.6,70.1-4.3,4.2-9.5,7.7-15.4,8.6-10.9,1.5-21.2-7-25.4-17.2-4.3-10.1-3.9-21.6-3.5-32.5.8-20,1.6-40,2.4-60,.3-7.3,0-15.9-6-20-4.8-3.3-11.4-2.3-17.1-.9-41.7,10.1-82.9,29.4-125.6,24.3-23.9-2.9-51-21.3-45.6-44.8,2.6-11.2,11.9-19.4,21.7-25.4,36.6-22.5,82.8-23,125.1-15.4,13.6,2.5,31.2,3.8,37.5-8.5,5-9.8-1.7-21.9-10.6-28.3s-19.9-9.4-28.9-15.7c-13.8-9.6-21.9-27.5-18.5-44,3.4-16.5,19-30.1,35.9-29.7,48.5,1.1,51.8,92.2,100.2,95.2,14.1-18.1,4.4-43.9-1.5-66.1-13.2-49.6,19.6-64,56.1-39.1,26.9,18.3,57.8,56.4,76.8,83.3,45.2,63.9,81.1,178.8,9.9,237.5Z"/>
      <path class="st4" d="M345,79.6c6,94,11.3,192.3-27,278.4-5.2,11.7-12.5,24.2-24.9,27.5-13.2,3.5-26.9-5.3-35.1-16.3-24.9-33.5-14.3-80-14.6-121.7,0-8-.6-16.2-4.1-23.4-10.6-22-40.7-23.8-65.1-22.4-5.2.3-10.9.8-14.5,4.6-3.2,3.4-3.7,8.4-3.9,13-2.4,40.7.3,82-8.5,121.9-2.8,12.5-6.9,25.2-15.8,34.3-14.3,14.7-36.8,16.9-57.3,18.1-9,.5-18.5,1-26.8-2.7-19.6-8.8-22.7-34.8-23-56.3-.9-71.3-1.8-142.6-2.8-214-.1-9.9,0-20.9,6.7-28.4,6.9-7.8,18.5-9.1,28.9-9.5,29.1-1.1,287.2-9.4,287.6-3.2Z"/>
    </g>
  </g>
  <g id="Layer_3">
    <path class="st2" d="M2236.8,14.7c83.6,66.1,208.4,68.1,270.7,85.6,62.3,17.5,54.5,118.7-75.9,134.3-130.4,15.5-225.8-25.4-284.2-56.5-58.4-31.1-122.6,4-99.3,144.1,23.4,140.2,37.2,243.3,81.8,367.9,44.8,124.6,91.5,296,31.2,311.6-60.3,15.6-97.3-97.3-167.4-245.3-70.1-148-122.7-243.3-134.3-183-11.7,60.3-21.5,80-44.8,157.9-23.4,77.9-109,79.8-116.8-2-7.8-81.7-2-134.6-27.3-155.9-25.3-21.4-72.2,27.9-124.1,90.1-53.7,64.4-174.2,4.9-101.2-79.9,87.9-102,48-91.9,48-91.9-23.3-48.7-194.6,145.9-253,210.1-58.4,64.3-128.5,74-138.2,23.4-2.7-14,247.7-353.8,291.7-534.3,43.9-180.5,63.4-381.2,69.1-586h0v-1843.6h496.4V-479.5c0,207.7,118.1,368,277.6,494.2Z"/>
    <path class="st3" d="M6015,183.8c-92.1,32.9-254.4-53.5-378.5-58.9-142-6.1-92.5-11.5-217.1,33.2-124.6,44.8-150.1,42.8-165.6-17.5-15.6-60.3-48.6-48.7,99.4-118.8,148-70.1,92.5-74.1,32.2-85.7-60.3-11.7-30.6-4.7-109.2-25.3-48.1-12.6-34.5-117,2-116.8,82.1.4,85.9-21.4,107.3-46.7,21.4-25.3-134.2-26.9-177.4-95.4-16.2-25.7,18.5-119.7,79.9-101.2,160.5,48.5,147,62.6,179.2,19.4,20.8-27.9,10.5-19.8-15.6-58.4-48.5-72-62.3-119.6-11.8-129.3,14-2.7,147.6,44.2,328,88.2,180.5,43.9,381.2,63.4,586,69.1h1843.6V36.1h-1759.1c-207.7,0-295.9,102.3-423.3,147.7Z"/>
    <path class="st2" d="M115.9,905.6c66.1-83.6,68.1-208.4,85.6-270.7,17.5-62.3,118.7-54.5,134.3,75.9,15.5,130.4-25.4,225.8-56.5,284.2-31.1,58.4,4,122.6,144.1,99.3,140.2-23.4,243.3-37.2,367.9-81.8,124.6-44.8,296-91.5,311.6-31.2,15.6,60.3-97.3,97.3-245.3,167.4-148,70.1-243.3,122.7-183,134.3,60.3,11.7,420.5,21.5,498.3,44.8,77.9,23.4,79.8,109-2,116.8-81.7,7.8-475.1,2-496.4,27.3-21.4,25.3,397.2,107.1,469.3,144.1,72,37,85.6,128.4-79.9,101.2-165.4-27.2-422.4-91.4-471.1-68-48.7,23.3,145.9,194.6,210.1,253,64.3,58.4,74,128.5,23.4,138.2-14,2.7-353.8-247.7-534.3-291.7-180.5-43.9-381.2-63.4-586-69.1h-1843.6v-496.4H-378.3c207.7,0,368-118.1,494.2-277.6Z"/>
    <path class="st2" d="M1982.9,1864.5c-83.6-66.1-226.1-94.6-278.1-133-94.4-69.9-21.9-177.1,80.6-105.8,107.8,75,206.6,71,274.5,59.2,65.2-11.3,127.7-35.3,104.4-175.4-23.4-140.2-104.6-144.4-193.9-140.8-149.2,6.1-259.2,165.2-303.4,51.8-30.7-78.7,184.2-202,397.4-223.5,162.9-16.4,277,121.6,288.6,61.3,11.7-60.3,21.5-177.2,44.8-255.1,23.4-77.9,109-79.8,116.8,2,7.8,81.7,2,231.9,27.3,253.2,25.3,21.4,107.1-154,144.1-226,37-72,128.4-85.6,101.2,79.9-27.2,165.4-91.4,179.2-68,227.9,23.3,48.7,48.7,0,107.1-64.2,58.4-64.3,138.1-74.9,138.2-23.4,0,82.9-101.8,207.9-145.7,388.3-43.9,180.5-63.4,381.2-69.1,586h0v1843.6h-496.4v-1759.1c0-207.7-110.7-320.6-270.2-446.8Z"/>
  </g>
</svg>