<?xml version="1.0" encoding="UTF-8"?>
<svg id="cover" xmlns="http://www.w3.org/2000/svg" version="1.1" viewBox="0 0 800 200">
  <!-- Generator: Adobe Illustrator 30.1.0, SVG Export Plug-In . SVG Version: 2.1.1 Build 136)  -->
  <defs>
    <style>
      .st0 {
        fill: #024454;
      }

      .st1 {
        fill: #d84d50;
      }

      .st2, .st3 {
        isolation: isolate;
      }

      .st4 {
        fill: #e4d0b9;
      }

      .st5 {
        fill: #c19280;
      }

      .st6 {
        fill: #6f8a81;
      }

      .st7 {
        opacity: .5;
      }

      .st8 {
        fill: #fdc296;
      }

      .st3 {
        fill: #231f20;
        font-family: EamesCenturyModern-BoldItalic, 'Eames Century Modern Bold';
        font-size: 70px;
        font-style: italic;
        font-weight: 700;
      }

      .st9 {
        fill: #ffb55c;
      }

      .st10 {
        display: none;
        fill: #5c82a7;
        fill-rule: evenodd;
      }

      .st11 {
        fill: #fcf8f5;
      }
    </style>
  </defs>
  <g id="background">
    <rect class="st11" width="800" height="200"/>
  </g>
  <g id="object" class="st7">
    <g>
      <path class="st9" d="M730.7,258.5c-19.3-5.9-42.2,3.2-52.2,20.8-3.6,6.3-5.6,13.7-4.3,20.8,7.2-2.2,14.5-4.4,21.7-6.6,2.5-.8,5.6-1.4,7.6.3,1.4,1.3,1.8,3.4,1.8,5.3.3,6.8-1,13.7-3.7,19.9-3.1,7.3-7.9,16.8-1.9,22.2,4,3.5,10.6,2.1,14.4-1.6s5.4-9.1,7-14.1c1.5-5.1,3.3-10.4,7.1-14,14-13.2,32.1,13.7,34.2-13,1.4-17.3-16.6-35.2-31.7-39.8h0Z"/>
      <path class="st1" d="M642.8,302c-.9,15.3-11.7,29.5-26.1,34.6-3.8,1.3-7.8,2.1-11.8,2.7-13.3,2.1-27.2,2.9-39.7-2-12.5-4.8-23.2-16.6-23-30,16.2,1.2,32.3,4.4,47.7,9.5,3.6-3.2,2.2-9.5-1.5-12.5s-8.7-3.7-13.5-4.2c-5.2-.6-10.4-1.2-15.5-1.7-6.5-.7-13.7-1.7-18.1-6.6-5.5-5.9-4.8-15.1-3.8-23.1,12.7-1.7,24.8,4.7,36,10.9,12.3,6.8,24.5,13.7,36.8,20.6,2.7-7-.7-15.7-7.4-19.1-3.3-1.7-7.2-2.1-10.7-3.6-3.4-1.5-6.6-4.9-5.9-8.6.4-2.2,2.1-3.9,3.9-5.2,24.2-16.7,54.1,14.9,52.7,38.5h0Z"/>
      <g>
        <path class="st6" d="M425.7,283.3c-3.2-6.2.4-14.2,6.2-18.1,5.7-3.9,13-4.8,19.9-5.6,10.7-1.2,21.8-2.3,31.9,1.4,18.3,6.6,19.9,18.3,2.3,22.7-5.2,1.3-58.8,2.4-60.2-.3h0Z"/>
        <path class="st9" d="M503.4,316.1c-.9,5.7-5.3,10.4-10.2,13.4-14.6,8.9-33.1,6.6-50,3.9-3.9-.6-8-1.3-11-3.9-1.7-1.5-2.9-3.5-3.6-5.7-3.7-10.7,4-22.8,14.3-27.5,14.4-6.6,64.7-6.8,60.5,19.8h0Z"/>
      </g>
      <path class="st0" d="M359.5,320.2c-16.9,13.5-38,21-59.3,24-6.9.9-15.1,1-19.5-4.5-2.2-2.8-2.9-6.5-3.3-10.1-.6-6.6-.2-13.7,3.7-19,7.4-10.2,22.6-9.1,35.1-10.4,9.5-.9,19-4,26.2-10.1s12.1-15.6,11.2-25c-.2-2.5-.7-5.3,1-7.1,1.1-1.1,2.8-1.4,4.3-1.6,6.5-.9,13.1-1.2,19.6-1h0c33.3,1-9.2,56.9-19.2,64.9h0Z"/>
      <path class="st8" d="M249.7,335.5c-1.4,1.9-2.9,3.8-5,5-6,3.3-13.9-1.4-16.4-7.7-2.5-6.4-1.4-13.5-.3-20.3s2-14-1-20.2c-3-6.1-11.6-10-17-5.8-4,3.1-4.5,8.8-5.3,13.8-1.7,11.3-6,22.1-12.7,31.4-2.3,3.2-5,6.4-8.6,8.1-3.6,1.7-8.3,1.7-11.2-.9-3.4-3-3.6-8.2-3.5-12.8.1-8.3.3-16.5.4-24.8,0-3.6,0-7.6-2.7-10-3.6-3.2-9.7-1.2-12.5,2.8-2.8,3.9-3.3,9-4,13.7-1.1,7.1-3,14-5.7,20.6-1.7,4.1-5.9,8.9-9.6,6.5-2-1.2-2.5-3.9-2.7-6.3-1.7-14.4-3.3-29.6,2.2-43,5.5-13.4,20.9-24,34.5-19.1,8.7,3.1,14.5,11.7,16.8,20.7s1.7,18.3,1,27.5c8.9-2.1,12-13.2,11.9-22.3s-1.4-19.2,4.1-26.5c4.7-6.1,13.1-8.1,20.8-7.7,6,.3,12.2,2.2,16.2,6.6,9.5,10.6,1.5,28.3,7.4,41.3,1.9,0,3.8,0,5.7,0,.2-6.9,6.3-12.7,5.8-19.6-.6-8.3-7.7-13.5-7.1-21.9,27.2,5.6,8.4,56.8-1.5,70.6h0Z"/>
      <path class="st6" d="M103,301.7c.2,3.6.3,7.5-1.3,10.7s-5.6,6-9.2,8c-19.1,11.1-39.3,22.6-61.4,23.5-2.3-5.3,3.1-10.7,8-13.8,8.7-5.5,18-10.1,27.6-13.9,5.6-2.1,11.6-4.2,15.3-9,4.8-6.3,3.8-15.2,2.5-23-14.6.8-29.2-.3-43.5-3.5-2.5-.6-5.2-1.2-7.2-2.9-5.7-4.7-3-14.7,3.2-18.7,6.2-4,14.1-3.7,21.5-3.3,10.3.6,33.9-2.7,41,6,6.1,7.5,2.9,30.4,3.4,39.6h0Z"/>
      <path class="st1" d="M767.6,36.8c0,0,.6-.3.7-.2,0,0-.6,0-.7,0-.1,0-.9-.3-.4-.1.1,0,.3.2.4.3-.8-.6.6.8,0,.1.3.4.6.9.8,1.4,0,0,.3.7,0,0,0,.2.1.3.2.5.1.5.3,1,.4,1.5.3,1.2.6,2.3.8,3.5.4,2.1.6,3.6.7,6.1,0,2.2,0,4.5-.2,6.8,0,.5,0,1-.2,1.6,0,.5,0,.1,0,0,0,.3,0,.6-.1.9-.2,1.2-.4,2.4-.7,3.5-.5,2.2-1.2,4.4-2,6.5-.3.9-.5,1.2-1,2.3-.5,1.1-1.1,2.2-1.7,3.2-.5.9-1.1,1.8-1.6,2.7-.3.4-.6.8-.9,1.2,0,0-.6.8-.3.4.1-.2-.5.6-.5.6-1.5,1.7-2.4,2.6-4.2,3.5,0,0-.8.4-.5.2.3-.1-.3,0-.3,0-.5.1-1,.3-1.5.4,0,0-.7,0-.2,0,.5,0-.3,0-.4,0-.5,0-1,0-1.5,0-.6,0,.6.1,0,0-.2,0-.4,0-.6,0-.5,0-1-.2-1.5-.4-.2,0-.4-.1-.5-.2-.6-.2.5.2,0,0-.5-.2-.9-.5-1.4-.7-.4-.2-.8-.5-1.2-.7-.6-.4-.3-.2-.1,0-.2-.2-.4-.3-.6-.5-.8-.7-1.5-1.4-2.1-2.2,0,0-.6-.7-.3-.4.2.3-.1-.2-.1-.2-.2-.4-.5-.8-.7-1.2-.6-1-1-1.9-1.3-2.7-.8-2.2-1.3-4.5-1.7-6.8,0-.5,0-.2,0,0,0-.3,0-.6,0-.9,0-.5,0-1.1-.1-1.6,0-1.3-.1-2.5-.2-3.8,0-2.5,0-5,0-7.4,0-4.7-.3-9.4,0-14.1,0-.4,0-.9.1-1.4,0,.8,0-.1,0-.5.1-.8.3-1.7.6-2.5s.3-.9.4-1.3c0-.1.1-.3.2-.5.2-.5-.3.5,0,0,.4-.6.8-1.4,1.2-2-.5.8,0,0,.3-.3,0,0,.2-.2.3-.3.3-.4-.6.3-.2.1.3-.1.6-.3.8-.5,0,0-.7.2-.3.1.2,0,.5-.1.7-.2.7-.2-.7,0,.2,0s.8,0,.3,0c-.4,0,.2,0,.2,0,.2,0,.5.1.7.2-.2,0-.5-.3,0,0,.2,0,.3.2.5.3.3.2-.2-.2.3.2.3.3.7.6,1,1,0,0,.6.7.3.4-.2-.3.2.3.2.2.6,1,1.2,1.9,1.6,3-.2-.5.2.7.3.9.2.5.3,1,.4,1.5.1.5.3,1.1.4,1.7,0,.2,0,.4.1.6,0,.2.1,1,0,.4,1,8.6-2.1,16.8-6.9,24.1-1.2,1.9-1.9,2.7-3.4,4.4-.7.8-1.5,1.5-2.2,2.2-.9.8-1.1,1-2,1.5-.8.6-1.7,1.1-2.7,1.5-.2,0-.4.2-.5.2-.6.3.5-.2-.2,0-.5.2-1,.4-1.6.5-.5.1-.9.2-1.4.3-.8.2-.3,0,0,0-.2,0-.5,0-.8,0-1,0-1.9,0-2.9,0-.6,0,.6.1,0,0-.2,0-.4,0-.5,0-.5,0-1-.2-1.5-.3-.4-.1-.8-.3-1.3-.4-.2,0-.3-.1-.5-.2.5.2,0,0-.2-.1-.8-.4-1.6-.8-2.4-1.3-.4-.2-.7-.5-1.1-.8-.6-.4-.2-.2-.1,0-.2-.2-.5-.4-.8-.6-3.2-2.7-5-5.2-6.8-9.1-.2-.4,0,0,0,0,0-.2-.2-.5-.3-.7-.2-.4-.3-.9-.4-1.3-.3-1.1-.6-2.3-.9-3.4-.4-2.3-.6-4.5-.6-7,0-5.1.7-9.8,1.7-14.8.5-2.5,1.1-5.1,1.7-7.6-.3.6-.7,1.2-1,1.8-.7.6.2,0,.3-.1-.8.5,0,0,.2,0,.9-.4-.7,0,.2,0h1c-.1,0-.8-.2,0,0,.3,0,.7.1,1,.2.1,0,1.1.5.3,0,.4.2.8.5,1.2.7.9.5-.3-.3.2.1.2.2.4.4.7.6,0,0,.8,1,.3.2.2.3.4.6.6.9.3.5.5,1,.7,1.5.1.4.3.9.4,1.3,0,.2.3,1.6.2,1.2.5,3.6,0,7.2-.4,10.8-.3,3.5-.8,6.8-1.7,10.4-.9,3.7-2,6.7-4,9.9-.9,1.4-1.2,1.8-2.4,3.1-.5.5-1,1-1.5,1.5-.3.3-.6.5-.9.8-.4.3-.4.3-.1.1-.2.2-.4.3-.7.5-.6.4-1.2.8-1.9,1.2-.3.2-.6.3-.9.5,0,0-1.2.5-.5.2-.7.3-1.5.5-2.3.7-.2,0-.5.1-.8.2-.3,0-.5,0-.8.1.4,0,.4,0,0,0-.8,0-1.6,0-2.4,0,0,0-1.2-.1-.6,0,.6,0-.7-.1-.6-.1-.8-.2-1.5-.4-2.3-.6-1.2-.4.6.3-.5-.2-.3-.2-.7-.3-1.1-.5-2.5-1.3-4.9-3.5-6.3-5.5-1.9-2.8-3.1-5.4-4-8.6-1.9-6.7-2-14.1-1.5-21.3,0-1.4-.1.6,0-.7s.2-.9.3-1.3c0-.4.2-.8.4-1.3.3-1.1-.3.4.3-.6.1-.2.3-.5.4-.8.6-1.1-.5.3.2-.4.2-.2.5-.5.8-.7-.6.6.5-.3.6-.4.2-.1.4-.2.6-.3-.8.4.2,0,.3,0,.2,0,1.2,0,.3,0h1c-1,0,0,0,.2.1-.3,0-.5-.4,0,0,.8.6-.3-.6.3.3.3.3.4.4.1.1.1.2.3.5.4.7.5,1,0-.5.2.6,0,.3.2.5.2.8.2.8.4,1.7.6,2.6.2.9.4,1.8.5,2.7,0,.3,0,.6.1.9,0,.5,0,.6,0,.3,0,.3,0,.6,0,.9.4,3.5.4,7.1,0,10.6,0-.7-.1.8-.1.7,0,.6-.2,1.2-.3,1.8-.2.9-.4,1.8-.7,2.6-.6,2-1.1,3.1-2,4.9-.4.8-.9,1.6-1.5,2.4,0,0-.8,1.1-.3.4-.2.3-.5.6-.7.9-.6.7-1.2,1.3-1.9,2-.3.3-.6.5-.9.8,0,0-.9.7-.4.3-1.3,1-2.8,1.9-4.3,2.6,0,0-1.2.5-.4.2-.5.2-.9.4-1.4.5-.8.3-1.6.5-2.4.7-.3,0-.6.1-.9.2-.3,0-.3,0,0,0-.2,0-.5,0-.7,0-.8,0-1.6,0-2.4,0-.3,0-.6,0-.9,0-.3,0-.3,0,0,0-.2,0-.5,0-.7-.1-.9-.2-1.7-.4-2.6-.7-2-.7-4.6.8-5,2.9-.5,2.3.7,4.3,2.9,5,8.5,3,17.8.2,24.7-5.3,7.5-6,11.1-15.4,11.8-24.8.4-5-.1-10-1.1-14.9s-2.7-10.3-8-11.9c-4.7-1.4-9.7.9-12.6,4.6-3.1,4.1-3.5,9.6-3.5,14.6,0,9.8.7,20.6,6.4,28.9,5.4,7.9,14.2,13,23.9,11.3,9.6-1.7,16.6-9.7,20.1-18.3,2-4.8,2.9-10,3.6-15.1.6-4.7,1.3-9.7.8-14.4-.5-5.2-2.6-10-7.1-12.9-3.7-2.4-8.9-3.1-12.7-.7-1.6,1-2.4,2.2-2.8,4-.3,1.3-.6,2.7-.9,4-.5,2.5-1.1,5.1-1.5,7.7-.9,5.4-1.4,11-.8,16.4.5,5.1,1.8,9.9,4.3,14.4,2.2,4,5.3,7.3,8.9,10.1,7.4,5.6,17.3,6.4,25.3,1.6,8.2-4.8,13.7-13.6,17.1-22.3,3.5-9,4.2-19.5-.2-28.4-2.2-4.4-6.5-8.3-11.7-8.4-4.2,0-7.7,2.5-9.7,6-2,3.4-2.8,7.4-3.1,11.3-.4,4.9,0,9.9,0,14.9,0,9.8,0,20.9,6.2,29,5.7,7.5,16.4,11.7,24.9,6,4.1-2.7,7.1-6.8,9.5-11.1,2.3-4.2,4.1-8.7,5.2-13.4,1.1-4.7,1.7-9.5,1.6-14.3,0-4.8-.7-9.8-2.3-14.4-1.5-4.4-5.9-9.9-11.2-7.7-2,.8-3.5,2.7-2.9,5,.5,1.9,3,3.7,5,2.9h-.2c0,0,0,0,0,0Z"/>
      <path class="st0" d="M545.1,97.2c-1.2-2.1,1.7-4,4-4.7,8.7-2.6,17.4-5.2,26-7.7,1.5-.4,1.4-2.6-.1-2.9-8.5-1.8-17.4-2.2-26-1.3-.7,0-1.4-.3-1.6-1-.6-2,0-4.4,1.5-6.1,1.7-1.9,4.3-3,6.8-3.8,6.2-2,12.6-3,19.1-3.1,2,0,4.5-.6,5.8-1.7,1-.9.4-2.6-1-2.6-6.3,0-12.6,0-19,0-3.5,0-7.2,0-10.2-1.9-2.7-1.7-4.4-5.6-2.8-8.3.2-.4.6-.6,1.1-.7,9.3-1.1,18.6-2.2,27.9-3.3,1.5-.2,1.8-2.3.4-2.9-7.6-3.1-18.2-.3-24.9-5.4-.2-.1-.3-.3-.4-.6-.8-2,.3-4.6,2.1-5.9,1.9-1.4,4.4-1.7,6.8-1.9,6.4-.6,12.8-.8,19.2-.7.9,0,1.6-.7,1.5-1.6-.3-3.8-.2-7.6,1.5-10.9,2-3.8,6.9-6.4,10.7-4.5,3,1.5,4.4,5.2,4.2,8.6-.2,2.5-1.1,4.9-2.2,7.1-.5,1,.3,2.2,1.5,2.1,9.9-1,19.9-2.1,29.7-3.3.9,0,1.7.6,1.7,1.4v7.9c.1.7-.3,1.3-1,1.5-6.3,1.7-12.7,2.8-19.2,3.4-1.7.1-1.8,2.5-.2,2.9,3,.7,6.1,1.1,9.3,1,3.4,0,6.9-.6,10.2.1s6.5,3.4,6.6,6.8c0,5.7-7.6,7.6-13.3,7.7-3.1,0-6.2,0-9.3.1-1.9,0-2,2.9,0,3,1.5,0,3,0,4.5-.1,3.4-.3,6.8-1,10.1-.7s6.9,2.1,8.1,5.3c1.4,3.8-1,8.2-4.5,10.2-3.5,2.1-7.7,2.4-11.7,2.6-5.6.4-11.2.7-16.8,1.1-1.5,0-1.9,2.2-.5,2.8,9.4,4.4,45.9,6.2,26.5,14.8-4.9,2.2-80.3,0-82-3h0Z"/>
      <path class="st5" d="M480.1,74c17-12.1,29.6-30.1,35.3-50.2-28.3-3.8-58.1,3.8-81.1,20.7-10,7.3-19.1,17-21.6,29.1,13.8-4.6,25.7-13.2,38.1-20.8,13.4-8.2,27.5-15.5,42-21.5-8.9,3.7-19.2,19.2-26.8,25.7-10.5,8.9-21.8,16.2-32.8,24.2-15.4,11.2-1.2,10.6,11.1,8.1,12.9-2.6,25.2-7.9,35.9-15.5h0Z"/>
      <path class="st9" d="M385.4,50.2c.8,8.1-2.4,16.2-7.3,22.7-11.1,15-30.9,23-49.3,19.9-1.8-.3-3.7-.7-5.2-1.9-3.5-2.8-2.8-8.6-.2-12.4,3.5-5.2,9.5-8.1,14.6-11.7s10.1-8.9,9.8-15.2c-19.6-3.9-41,9.2-46.3,28.5-1.4,4.9-.3,12.1,4.9,12.5-5.3,4.1-13.7,3.4-18.2-1.5-4.3-4.7-4.7-11.8-4.9-18.2-.1-6.3-.3-12.6-.4-18.9-.1-6.7-.2-14,3.5-19.6,8.6-13.2,40.4-16.3,55-15.9,17.7.5,41.9,12,43.9,31.7h0Z"/>
      <path class="st6" d="M243.2,97c-2.4,1.9-5.5,3.5-8.5,2.8-5.3-1.3-6.5-8.3-6.2-13.8s.5-12.2-4.3-15c-5.6-3.3-12.5,2.2-15,8.2s-3.3,13-7.9,17.5c-1.1,1-2.4,1.9-3.8,2.1-2.7.4-5.3-1.7-6.3-4.3-1.1-2.5-1-5.4-.9-8.1.2-5,.4-10,.6-15,0-1.8,0-4-1.5-5-1.2-.8-2.8-.6-4.3-.2-10.4,2.5-20.7,7.3-31.4,6.1-6-.7-12.7-5.3-11.4-11.2.6-2.8,3-4.8,5.4-6.3,9.1-5.6,20.7-5.7,31.2-3.8,3.4.6,7.8.9,9.4-2.1,1.2-2.4-.4-5.5-2.6-7.1s-5-2.3-7.2-3.9c-3.4-2.4-5.5-6.9-4.6-11s4.7-7.5,9-7.4c12.1.3,12.9,23,25,23.8,3.5-4.5,1.1-11-.4-16.5-3.3-12.4,4.9-16,14-9.8,6.7,4.6,14.4,14.1,19.2,20.8,11.3,16,20.3,44.7,2.5,59.3h0Z"/>
      <path class="st4" d="M106.9,18c1.5,23.5,2.8,48-6.7,69.5-1.3,2.9-3.1,6-6.2,6.9-3.3.9-6.7-1.3-8.8-4.1-6.2-8.4-3.6-20-3.6-30.4,0-2-.1-4-1-5.8-2.6-5.5-10.2-5.9-16.3-5.6-1.3,0-2.7.2-3.6,1.1-.8.8-.9,2.1-1,3.2-.6,10.2,0,20.5-2.1,30.4-.7,3.1-1.7,6.3-3.9,8.6-3.6,3.7-9.2,4.2-14.3,4.5-2.2.1-4.6.2-6.7-.7-4.9-2.2-5.7-8.7-5.7-14.1-.2-17.8-.4-35.6-.7-53.4,0-2.5,0-5.2,1.7-7.1,1.7-1.9,4.6-2.3,7.2-2.4,7.3-.3,71.7-2.3,71.8-.8h0Z"/>
    </g>
  </g>
  <path id="hand" class="st10" d="M1116-114.6c25-31.6,25.8-78.8,32.4-102.4,6.6-23.5,44.9-20.6,50.8,28.7,5.9,49.3-9.6,85.4-21.4,107.5-11.8,22.1,1.5,46.4,54.5,37.6,53-8.9,92.1-14.1,139.2-31,47.1-16.9,112-34.6,117.9-11.8,5.9,22.8-36.8,36.8-92.8,63.3-56,26.5-92.1,46.4-69.2,50.8,22.8,4.4,159.1,8.1,188.5,16.9,29.5,8.9,30.2,41.2-.8,44.2-30.9,3-179.7.8-187.8,10.3-8.1,9.6,150.2,40.5,177.5,54.5,27.2,14,32.4,48.6-30.2,38.3-62.6-10.3-159.8-34.6-178.2-25.7-18.4,8.8,55.2,73.6,79.5,95.7,24.3,22.1,28,48.6,8.9,52.3-5.3,1-133.8-93.7-202.1-110.3s-144.2-24-221.7-26.1H263.5V-9.5h665.5c78.6,0,139.2-44.7,186.9-105h0Z"/>
  <path id="hand-pinch" class="st10" d="M993.1,682.7c-56.4,71.4-80.8,193-113.5,237.4-59.7,80.6-151.2,18.7-90.3-68.8,64-92,60.6-176.4,50.5-234.4-9.6-55.7-30.1-109-149.7-89.1-119.7,20-123.3,89.3-120.2,165.5,5.2,127.4,141,221.3,44.2,259-67.2,26.2-172.5-157.3-190.8-339.3-14-139.1,103.8-236.5,52.3-246.4-51.5-10-151.3-18.4-217.8-38.2-66.5-20-68.1-93.1,1.7-99.7,69.8-6.7,198-1.7,216.2-23.3,18.3-21.6-131.5-91.4-192.9-123-61.5-31.6-73.1-109.6,68.2-86.4,141.2,23.2,153,78,194.6,58.1s0-41.6-54.8-91.4c-54.9-49.9-63.9-117.9-20-118,70.8,0,177.5,86.9,331.5,124.4,154.1,37.5,325.5,54.1,500.3,59h1654v423.8h-1581.8c-177.3,0-273.7,94.5-381.5,230.7v.2h-.2Z"/>
  <g id="tangible" class="st2">
    <g class="st2">
      <text class="st3" transform="translate(37.1 163.5) scale(1.1 1)"><tspan x="0" y="0" xml:space="preserve">Tangible  Interfaces</tspan></text>
    </g>
  </g>
</svg>