<?xml version="1.0" encoding="UTF-8"?>
<svg id="cover" xmlns="http://www.w3.org/2000/svg" version="1.1" viewBox="0 0 1200 600">
  <!-- Generator: Adobe Illustrator 30.1.0, SVG Export Plug-In . SVG Version: 2.1.1 Build 136)  -->
  <defs>
    <style>
      .st0, .st1 {
        isolation: isolate;
      }

      .st0, .st2 {
        fill: #231f20;
        font-family: EamesCenturyModern-BoldItalic, 'Eames Century Modern Bold';
        font-size: 130px;
        font-style: italic;
        font-weight: 700;
      }

      .st3 {
        fill: #024454;
      }

      .st4 {
        display: none;
        opacity: .5;
      }

      .st5 {
        fill: #d84d50;
      }

      .st6 {
        fill: #e4d0b9;
      }

      .st7 {
        fill: #c19280;
      }

      .st8 {
        fill: #6f8a81;
      }

      .st9 {
        fill: #fdc296;
      }

      .st10 {
        fill: #ffb55c;
      }

      .st11 {
        fill: #5c82a7;
        fill-rule: evenodd;
      }

      .st12 {
        fill: #fcf8f5;
      }
    </style>
  </defs>
  <g id="background">
    <rect class="st12" width="1200" height="600"/>
  </g>
  <g id="object" class="st4">
    <g>
      <path class="st10" d="M1109.7,445.7c-29.7-9.1-64.9,4.9-80.3,32-5.5,9.7-8.6,21.1-6.6,32,11.1-3.4,22.3-6.8,33.4-10.2,3.8-1.2,8.6-2.2,11.7.5,2.2,2,2.8,5.2,2.8,8.2.5,10.5-1.5,21.1-5.7,30.6-4.8,11.2-12.2,25.8-2.9,34.1,6.2,5.4,16.3,3.2,22.1-2.5s8.3-14,10.8-21.7c2.3-7.8,5.1-16,10.9-21.5,21.5-20.3,49.4,21.1,52.6-20,2.2-26.6-25.5-54.1-48.8-61.2h0v-.3Z"/>
      <path class="st5" d="M974.5,512.6c-1.4,23.5-18,45.4-40.1,53.2-5.8,2-12,3.2-18.1,4.2-20.5,3.2-41.8,4.5-61.1-3.1-19.2-7.4-35.7-25.5-35.4-46.1,24.9,1.8,49.7,6.8,73.4,14.6,5.5-4.9,3.4-14.6-2.3-19.2s-13.4-5.7-20.8-6.5c-8-.9-16-1.8-23.8-2.6-10-1.1-21.1-2.6-27.8-10.2-8.5-9.1-7.4-23.2-5.8-35.5,19.5-2.6,38.1,7.2,55.4,16.8,18.9,10.5,37.7,21.1,56.6,31.7,4.2-10.8-1.1-24.1-11.4-29.4-5.1-2.6-11.1-3.2-16.5-5.5-5.2-2.3-10.2-7.5-9.1-13.2.6-3.4,3.2-6,6-8,37.2-25.7,83.2,22.9,81.1,59.2h0l-.2-.3Z"/>
      <g>
        <path class="st8" d="M640.6,483.8c-4.9-9.5.6-21.8,9.5-27.8,8.8-6,20-7.4,30.6-8.6,16.5-1.8,33.5-3.5,49.1,2.2,28.1,10.2,30.6,28.1,3.5,34.9-8,2-90.4,3.7-92.6-.5h0l-.2-.2Z"/>
        <path class="st10" d="M760.1,534.3c-1.4,8.8-8.2,16-15.7,20.6-22.5,13.7-50.9,10.2-76.9,6-6-.9-12.3-2-16.9-6-2.6-2.3-4.5-5.4-5.5-8.8-5.7-16.5,6.2-35.1,22-42.3,22.1-10.2,99.5-10.5,93.1,30.5h0Z"/>
      </g>
      <path class="st3" d="M538.8,540.6c-26,20.8-58.4,32.3-91.2,36.9-10.6,1.4-23.2,1.5-30-6.9-3.4-4.3-4.5-10-5.1-15.5-.9-10.2-.3-21.1,5.7-29.2,11.4-15.7,34.8-14,54-16,14.6-1.4,29.2-6.2,40.3-15.5,11.1-9.4,18.6-24,17.2-38.5-.3-3.8-1.1-8.2,1.5-10.9,1.7-1.7,4.3-2.2,6.6-2.5,10-1.4,20.1-1.8,30.1-1.5h0c51.2,1.5-14.2,87.5-29.5,99.8h0l.3-.2Z"/>
      <path class="st9" d="M369.9,564.1c-2.2,2.9-4.5,5.8-7.7,7.7-9.2,5.1-21.4-2.2-25.2-11.8-3.8-9.8-2.2-20.8-.5-31.2s3.1-21.5-1.5-31.1c-4.6-9.4-17.8-15.4-26.1-8.9-6.2,4.8-6.9,13.5-8.2,21.2-2.6,17.4-9.2,34-19.5,48.3-3.5,4.9-7.7,9.8-13.2,12.5-5.5,2.6-12.8,2.6-17.2-1.4-5.2-4.6-5.5-12.6-5.4-19.7.2-12.8.5-25.4.6-38.1,0-5.5,0-11.7-4.2-15.4-5.5-4.9-14.9-1.8-19.2,4.3-4.3,6-5.1,13.8-6.2,21.1-1.7,10.9-4.6,21.5-8.8,31.7-2.6,6.3-9.1,13.7-14.8,10-3.1-1.8-3.8-6-4.2-9.7-2.6-22.1-5.1-45.5,3.4-66.1,8.5-20.6,32.1-36.9,53.1-29.4,13.4,4.8,22.3,18,25.8,31.8s2.6,28.1,1.5,42.3c13.7-3.2,18.5-20.3,18.3-34.3-.2-14-2.2-29.5,6.3-40.8,7.2-9.4,20.1-12.5,32-11.8,9.2.5,18.8,3.4,24.9,10.2,14.6,16.3,2.3,43.5,11.4,63.5h8.8c.3-10.6,9.7-19.5,8.9-30.1-.9-12.8-11.8-20.8-10.9-33.7,41.8,8.6,12.9,87.4-2.3,108.6h0v.5Z"/>
      <path class="st8" d="M144.3,512.1c.3,5.5.5,11.5-2,16.5s-8.6,9.2-14.2,12.3c-29.4,17.1-60.4,34.8-94.4,36.1-3.5-8.2,4.8-16.5,12.3-21.2,13.4-8.5,27.7-15.5,42.5-21.4,8.6-3.2,17.8-6.5,23.5-13.8,7.4-9.7,5.8-23.4,3.8-35.4-22.5,1.2-44.9-.5-66.9-5.4-3.8-.9-8-1.8-11.1-4.5-8.8-7.2-4.6-22.6,4.9-28.8s21.7-5.7,33.1-5.1c15.8.9,52.1-4.2,63.1,9.2,9.4,11.5,4.5,46.8,5.2,60.9h0l.2.5Z"/>
      <path class="st5" d="M1166.5,49.6s.9-.5,1.1-.3h-1.1c-.2,0-1.4-.5-.6-.2.2,0,.5.3.6.5-1.2-.9.9,1.2,0,.2.5.6.9,1.4,1.2,2.2,0,0,.5,1.1,0,0,0,.3.2.5.3.8.2.8.5,1.5.6,2.3.5,1.8.9,3.5,1.2,5.4.6,3.2.9,5.5,1.1,9.4,0,3.4,0,6.9-.3,10.5,0,.8,0,1.5-.3,2.5,0,.8,0,.2,0,0,0,.5,0,.9-.2,1.4-.3,1.8-.6,3.7-1.1,5.4-.8,3.4-1.8,6.8-3.1,10-.5,1.4-.8,1.8-1.5,3.5-.8,1.7-1.7,3.4-2.6,4.9-.8,1.4-1.7,2.8-2.5,4.2-.5.6-.9,1.2-1.4,1.8,0,0-.9,1.2-.5.6.2-.3-.8.9-.8.9-2.3,2.6-3.7,4-6.5,5.4,0,0-1.2.6-.8.3.5-.2-.5,0-.5,0-.8.2-1.5.5-2.3.6,0,0-1.1,0-.3,0s-.5,0-.6,0h-2.3c-.9,0,.9.2,0,0h-.9c-.8,0-1.5-.3-2.3-.6-.3,0-.6-.2-.8-.3-.9-.3.8.3,0,0s-1.4-.8-2.2-1.1c-.6-.3-1.2-.8-1.8-1.1-.9-.6-.5-.3-.2,0-.3-.3-.6-.5-.9-.8-1.2-1.1-2.3-2.2-3.2-3.4,0,0-.9-1.1-.5-.6.3.5-.2-.3-.2-.3-.3-.6-.8-1.2-1.1-1.8-.9-1.5-1.5-2.9-2-4.2-1.2-3.4-2-6.9-2.6-10.5,0-.8,0-.3,0,0v-1.4c0-.8,0-1.7-.2-2.5,0-2-.2-3.8-.3-5.8v-11.4c0-7.2-.5-14.5,0-21.7,0-.6,0-1.4.2-2.2,0,1.2,0-.2,0-.8.2-1.2.5-2.6.9-3.8s.5-1.4.6-2c0-.2.2-.5.3-.8.3-.8-.5.8,0,0,.6-.9,1.2-2.2,1.8-3.1-.8,1.2,0,0,.5-.5,0,0,.3-.3.5-.5.5-.6-.9.5-.3.2.5-.2.9-.5,1.2-.8,0,0-1.1.3-.5.2.3,0,.8-.2,1.1-.3,1.1-.3-1.1,0,.3,0s1.2,0,.5,0,.3,0,.3,0c.3,0,.8.2,1.1.3-.3,0-.8-.5,0,0,.3,0,.5.3.8.5.5.3-.3-.3.5.3.5.5,1.1.9,1.5,1.5,0,0,.9,1.1.5.6-.3-.5.3.5.3.3.9,1.5,1.8,2.9,2.5,4.6-.3-.8.3,1.1.5,1.4.3.8.5,1.5.6,2.3.2.8.5,1.7.6,2.6,0,.3,0,.6.2.9,0,.3.2,1.5,0,.6,1.5,13.2-3.2,25.8-10.6,37.1-1.8,2.9-2.9,4.2-5.2,6.8-1.1,1.2-2.3,2.3-3.4,3.4-1.4,1.2-1.7,1.5-3.1,2.3-1.2.9-2.6,1.7-4.2,2.3-.3,0-.6.3-.8.3-.9.5.8-.3-.3,0-.8.3-1.5.6-2.5.8-.8.2-1.4.3-2.2.5-1.2.3-.5,0,0,0h-5.7c-.9,0,.9.2,0,0h-.8c-.8,0-1.5-.3-2.3-.5-.6-.2-1.2-.5-2-.6-.3,0-.5-.2-.8-.3.8.3,0,0-.3-.2-1.2-.6-2.5-1.2-3.7-2-.6-.3-1.1-.8-1.7-1.2-.9-.6-.3-.3-.2,0-.3-.3-.8-.6-1.2-.9-4.9-4.2-7.7-8-10.5-14-.3-.6,0,0,0,0,0-.3-.3-.8-.5-1.1-.3-.6-.5-1.4-.6-2-.5-1.7-.9-3.5-1.4-5.2-.6-3.5-.9-6.9-.9-10.8,0-7.8,1.1-15.1,2.6-22.8s1.7-7.8,2.6-11.7c-.5.9-1.1,1.8-1.5,2.8-1.1.9.3,0,.5-.2-1.2.8,0,0,.3,0,1.4-.6-1.1,0,.3,0h1.5c-.2,0-1.2-.3,0,0,.5,0,1.1.2,1.5.3.2,0,1.7.8.5,0,.6.3,1.2.8,1.8,1.1,1.4.8-.5-.5.3.2.3.3.6.6,1.1.9,0,0,1.2,1.5.5.3.3.5.6.9.9,1.4.5.8.8,1.5,1.1,2.3.2.6.5,1.4.6,2,0,.3.5,2.5.3,1.8.8,5.5,0,11.1-.6,16.6-.5,5.4-1.2,10.5-2.6,16-1.4,5.7-3.1,10.3-6.2,15.2-1.4,2.2-1.8,2.8-3.7,4.8l-2.3,2.3c-.5.5-.9.8-1.4,1.2q-.6.5-.2.2c-.3.3-.6.5-1.1.8-.9.6-1.8,1.2-2.9,1.8-.5.3-.9.5-1.4.8,0,0-1.8.8-.8.3-1.1.5-2.3.8-3.5,1.1-.3,0-.8.2-1.2.3-.5,0-.8,0-1.2.2q.6,0,0,0h-3.7s-1.8-.2-.9,0c.9,0-1.1-.2-.9-.2-1.2-.3-2.3-.6-3.5-.9-1.8-.6.9.5-.8-.3-.5-.3-1.1-.5-1.7-.8-3.8-2-7.5-5.4-9.7-8.5-2.9-4.3-4.8-8.3-6.2-13.2-2.9-10.3-3.1-21.7-2.3-32.8,0-2.2-.2.9,0-1.1s.3-1.4.5-2c0-.6.3-1.2.6-2,.5-1.7-.5.6.5-.9.2-.3.5-.8.6-1.2.9-1.7-.8.5.3-.6.3-.3.8-.8,1.2-1.1-.9.9.8-.5.9-.6.3-.2.6-.3.9-.5-1.2.6.3,0,.5,0,.3,0,1.8,0,.5,0h1.5c-1.5,0,0,0,.3.2-.5,0-.8-.6,0,0,1.2.9-.5-.9.5.5.5.5.6.6.2.2.2.3.5.8.6,1.1.8,1.5,0-.8.3.9,0,.5.3.8.3,1.2.3,1.2.6,2.6.9,4,.3,1.4.6,2.8.8,4.2,0,.5,0,.9.2,1.4,0,.8,0,.9,0,.5v1.4c.6,5.4.6,10.9,0,16.3,0-1.1-.2,1.2-.2,1.1,0,.9-.3,1.8-.5,2.8-.3,1.4-.6,2.8-1.1,4-.9,3.1-1.7,4.8-3.1,7.5-.6,1.2-1.4,2.5-2.3,3.7,0,0-1.2,1.7-.5.6-.3.5-.8.9-1.1,1.4-.9,1.1-1.8,2-2.9,3.1-.5.5-.9.8-1.4,1.2,0,0-1.4,1.1-.6.5-2,1.5-4.3,2.9-6.6,4,0,0-1.8.8-.6.3-.8.3-1.4.6-2.2.8-1.2.5-2.5.8-3.7,1.1-.5,0-.9.2-1.4.3q-.5,0,0,0h-6.2q-.5,0,0,0c-.3,0-.8,0-1.1-.2-1.4-.3-2.6-.6-4-1.1-3.1-1.1-7.1,1.2-7.7,4.5-.8,3.5,1.1,6.6,4.5,7.7,13.1,4.6,27.4.3,38-8.2,11.5-9.2,17.1-23.7,18.1-38.1.6-7.7-.2-15.4-1.7-22.9s-4.2-15.8-12.3-18.3c-7.2-2.2-14.9,1.4-19.4,7.1-4.8,6.3-5.4,14.8-5.4,22.5,0,15.1,1.1,31.7,9.8,44.5,8.3,12.2,21.8,20,36.8,17.4,14.8-2.6,25.5-14.9,30.9-28.1,3.1-7.4,4.5-15.4,5.5-23.2.9-7.2,2-14.9,1.2-22.1-.8-8-4-15.4-10.9-19.8-5.7-3.7-13.7-4.8-19.5-1.1-2.5,1.5-3.7,3.4-4.3,6.2-.5,2-.9,4.2-1.4,6.2-.8,3.8-1.7,7.8-2.3,11.8-1.4,8.3-2.2,16.9-1.2,25.2.8,7.8,2.8,15.2,6.6,22.1,3.4,6.2,8.2,11.2,13.7,15.5,11.4,8.6,26.6,9.8,38.9,2.5,12.6-7.4,21.1-20.9,26.3-34.3,5.4-13.8,6.5-30-.3-43.7-3.4-6.8-10-12.8-18-12.9-6.5,0-11.8,3.8-14.9,9.2-3.1,5.2-4.3,11.4-4.8,17.4-.6,7.5,0,15.2,0,22.9,0,15.1,0,32.1,9.5,44.6,8.8,11.5,25.2,18,38.3,9.2,6.3-4.2,10.9-10.5,14.6-17.1,3.5-6.5,6.3-13.4,8-20.6,1.7-7.2,2.6-14.6,2.5-22,0-7.4-1.1-15.1-3.5-22.1-2.3-6.8-9.1-15.2-17.2-11.8-3.1,1.2-5.4,4.2-4.5,7.7.8,2.9,4.6,5.7,7.7,4.5h-.3v.8Z"/>
      <path class="st3" d="M824.3,142.5c-1.8-3.2,2.6-6.2,6.2-7.2,13.4-4,26.8-8,40-11.8,2.3-.6,2.2-4-.2-4.5-13.1-2.8-26.8-3.4-40-2-1.1,0-2.2-.5-2.5-1.5-.9-3.1,0-6.8,2.3-9.4,2.6-2.9,6.6-4.6,10.5-5.8,9.5-3.1,19.4-4.6,29.4-4.8,3.1,0,6.9-.9,8.9-2.6,1.5-1.4.6-4-1.5-4h-29.2c-5.4,0-11.1,0-15.7-2.9-4.2-2.6-6.8-8.6-4.3-12.8.3-.6.9-.9,1.7-1.1,14.3-1.7,28.6-3.4,42.9-5.1,2.3-.3,2.8-3.5.6-4.5-11.7-4.8-28-.5-38.3-8.3-.3-.2-.5-.5-.6-.9-1.2-3.1.5-7.1,3.2-9.1,2.9-2.2,6.8-2.6,10.5-2.9,9.8-.9,19.7-1.2,29.5-1.1,1.4,0,2.5-1.1,2.3-2.5-.5-5.8-.3-11.7,2.3-16.8,3.1-5.8,10.6-9.8,16.5-6.9,4.6,2.3,6.8,8,6.5,13.2-.3,3.8-1.7,7.5-3.4,10.9-.8,1.5.5,3.4,2.3,3.2,15.2-1.5,30.6-3.2,45.7-5.1,1.4,0,2.6.9,2.6,2.2v12.2c.2,1.1-.5,2-1.5,2.3-9.7,2.6-19.5,4.3-29.5,5.2-2.6.2-2.8,3.8-.3,4.5,4.6,1.1,9.4,1.7,14.3,1.5,5.2,0,10.6-.9,15.7.2s10,5.2,10.2,10.5c0,8.8-11.7,11.7-20.5,11.8-4.8,0-9.5,0-14.3.2-2.9,0-3.1,4.5,0,4.6,2.3,0,4.6,0,6.9-.2,5.2-.5,10.5-1.5,15.5-1.1s10.6,3.2,12.5,8.2c2.2,5.8-1.5,12.6-6.9,15.7-5.4,3.2-11.8,3.7-18,4-8.6.6-17.2,1.1-25.8,1.7-2.3,0-2.9,3.4-.8,4.3,14.5,6.8,70.6,9.5,40.8,22.8-7.5,3.4-123.5,0-126.1-4.6h0l-.2.3Z"/>
      <path class="st7" d="M724.3,106.8c26.1-18.6,45.5-46.3,54.3-77.2-43.5-5.8-89.4,5.8-124.7,31.8-15.4,11.2-29.4,26.1-33.2,44.8,21.2-7.1,39.5-20.3,58.6-32,20.6-12.6,42.3-23.8,64.6-33.1-13.7,5.7-29.5,29.5-41.2,39.5-16.1,13.7-33.5,24.9-50.4,37.2-23.7,17.2-1.8,16.3,17.1,12.5,19.8-4,38.8-12.2,55.2-23.8h0l-.2.3Z"/>
      <path class="st10" d="M578.6,70.2c1.2,12.5-3.7,24.9-11.2,34.9-17.1,23.1-47.5,35.4-75.8,30.6-2.8-.5-5.7-1.1-8-2.9-5.4-4.3-4.3-13.2-.3-19.1,5.4-8,14.6-12.5,22.5-18,7.8-5.5,15.5-13.7,15.1-23.4-30.1-6-63.1,14.2-71.2,43.8-2.2,7.5-.5,18.6,7.5,19.2-8.2,6.3-21.1,5.2-28-2.3-6.6-7.2-7.2-18.1-7.5-28-.2-9.7-.5-19.4-.6-29.1-.2-10.3-.3-21.5,5.4-30.1,13.2-20.3,62.1-25.1,84.6-24.5,27.2.8,64.4,18.5,67.5,48.8h.2Z"/>
      <path class="st8" d="M359.9,142.2c-3.7,2.9-8.5,5.4-13.1,4.3-8.2-2-10-12.8-9.5-21.2s.8-18.8-6.6-23.1c-8.6-5.1-19.2,3.4-23.1,12.6s-5.1,20-12.2,26.9c-1.7,1.5-3.7,2.9-5.8,3.2-4.2.6-8.2-2.6-9.7-6.6-1.7-3.8-1.5-8.3-1.4-12.5.3-7.7.6-15.4.9-23.1,0-2.8,0-6.2-2.3-7.7-1.8-1.2-4.3-.9-6.6-.3-16,3.8-31.8,11.2-48.3,9.4-9.2-1.1-19.5-8.2-17.5-17.2.9-4.3,4.6-7.4,8.3-9.7,14-8.6,31.8-8.8,48-5.8,5.2.9,12,1.4,14.5-3.2,1.8-3.7-.6-8.5-4-10.9s-7.7-3.5-11.1-6c-5.2-3.7-8.5-10.6-7.1-16.9s7.2-11.5,13.8-11.4c18.6.5,19.8,35.4,38.5,36.6,5.4-6.9,1.7-16.9-.6-25.4-5.1-19.1,7.5-24.6,21.5-15.1,10.3,7.1,22.1,21.7,29.5,32,17.4,24.6,31.2,68.8,3.8,91.2h0v-.2Z"/>
      <path class="st6" d="M150.3,20.7c2.3,36.1,4.3,73.8-10.3,106.9-2,4.5-4.8,9.2-9.5,10.6-5.1,1.4-10.3-2-13.5-6.3-9.5-12.9-5.5-30.8-5.5-46.8s-.2-6.2-1.5-8.9c-4-8.5-15.7-9.1-25.1-8.6-2,0-4.2.3-5.5,1.7s-1.4,3.2-1.5,4.9c-.9,15.7,0,31.5-3.2,46.8-1.1,4.8-2.6,9.7-6,13.2-5.5,5.7-14.2,6.5-22,6.9-3.4.2-7.1.3-10.3-1.1-7.5-3.4-8.8-13.4-8.8-21.7-.3-27.4-.6-54.8-1.1-82.1,0-3.8,0-8,2.6-10.9s7.1-3.5,11.1-3.7c11.2-.5,110.3-3.5,110.4-1.2h0l-.2.3Z"/>
    </g>
  </g>
  <path id="hand" class="st11" d="M311.3,328.6h0c34.3,43.4,78,75.6,134.6,75.6h754.1v135.1H422.8c-55.8,1.5-110.4,6.8-159.6,18.8-49.2,12-119.6,35.9-123.4,35.2-13.8-2.7-11.1-21.7,6.4-37.7,17.5-15.9,48.4-18.3,35.1-24.7-13.2-6.4-50.1,11.1-95.1,18.5-45.1,7.4-41.3-17.5-21.7-27.6,19.7-10.1,100.5-32.3,94.6-39.2-5.8-6.8-79.8-5.3-102-7.4-22.3-2.2-21.8-25.4-.6-31.8,21.2-6.3,86.1-9,102.5-12.2,16.5-3.2-9.5-17.5-49.8-36.6-40.3-19.1-37.9-29.2-33.6-45.6,2.4-9.3,22.6-2,51.7,8.5,33.9,12.2,62.1,15.9,100.2,22.3,38.2,6.3,47.7-11.2,39.2-27.1-8.5-15.9-19.7-41.9-15.4-77.4,4.2-35.5,31.8-37.6,36.6-20.7,4.8,17,5.3,51,23.3,73.7h0Z"/>
  <path id="hand-pinch" class="st11" d="M795,293.8h0,0c-36.1-45.7-68.4-77.3-127.8-77.3H0V74.4h691.3c58.6-1.6,116-7.2,167.6-19.8,51.6-12.6,87.3-41.7,111-41.7,14.7,0,11.7,22.8-6.7,39.5-18.4,16.7-32.3,24-18.4,30.6,13.9,6.7,17.9-11.7,65.2-19.5,47.3-7.8,43.4,18.4,22.8,28.9-20.6,10.6-70.7,34-64.6,41.2,6.1,7.2,49,5.6,72.4,7.8,23.4,2.2,22.8,26.7.6,33.4-22.3,6.6-55.7,9.4-73,12.8-17.3,3.3,22.2,35.9,17.5,82.5-6.1,61-41.4,122.4-63.9,113.7-32.4-12.6,13.1-44.1,14.8-86.8,1-25.5-.2-48.7-40.3-55.4-40.1-6.7-46.9,11.2-50.1,29.8-3.4,19.4-4.5,47.7,16.9,78.5,20.4,29.3-10.3,50-30.2,23-11-14.9-19.1-55.6-38-79.5h0Z"/>
  <g id="tangible" class="st1">
    <g class="st1">
      <g class="st1">
        <text class="st0" transform="translate(147.7 176.7) scale(1.1 1)"><tspan x="0" y="0">Tangible </tspan></text>
      </g>
    </g>
  </g>
  <text class="st2" transform="translate(409.7 505.5) scale(1.1 1)"><tspan x="0" y="0">Interfaces</tspan></text>
</svg>